<?xml version="1.0" encoding="UTF-8"?>
<svg id="Layer_2" data-name="Layer 2" xmlns="http://www.w3.org/2000/svg" viewBox="0 0 448 320">
  <defs>
    <style>
      .cls-1 {
        fill: #676417;
        stroke-width: 0px;
      }
    </style>
  </defs>
  <g id="Layer_1-2" data-name="Layer 1">
    <path class="cls-1" d="m448,200c0,66.3-53.7,120-120,120h-8c-17.7,0-32-14.3-32-32s14.3-32,32-32h8c30.9,0,56-25.1,56-56v-8h-64c-35.3,0-64-28.7-64-64v-64c0-35.3,28.7-64,64-64h64c35.3,0,64,28.7,64,64v136Zm-256,0c0,66.3-53.7,120-120,120h-8c-17.7,0-32-14.3-32-32s14.3-32,32-32h8c30.9,0,56-25.1,56-56v-8h-64C28.7,192,0,163.3,0,128v-64C0,28.7,28.7,0,64,0h64c35.3,0,64,28.7,64,64v136Z"/>
  </g>
</svg>