<?xml version="1.0" encoding="UTF-8"?>
<svg id="Layer_2" data-name="Layer 2" xmlns="http://www.w3.org/2000/svg" viewBox="0 0 448 320">
  <defs>
    <style>
      .cls-1 {
        fill: #676417;
        stroke-width: 0px;
      }
    </style>
  </defs>
  <g id="Layer_1-2" data-name="Layer 1">
    <path class="cls-1" d="m0,120C0,53.7,53.7,0,120,0h8c17.7,0,32,14.3,32,32s-14.3,32-32,32h-8c-30.9,0-56,25.1-56,56v8h64c35.3,0,64,28.7,64,64v64c0,35.3-28.7,64-64,64h-64c-35.3,0-64-28.7-64-64V120Zm256,0C256,53.7,309.7,0,376,0h8c17.7,0,32,14.3,32,32s-14.3,32-32,32h-8c-30.9,0-56,25.1-56,56v8h64c35.3,0,64,28.7,64,64v64c0,35.3-28.7,64-64,64h-64c-35.3,0-64-28.7-64-64V120Z"/>
  </g>
</svg>