<?xml version="1.0" encoding="UTF-8"?>
<svg id="Layer_2" data-name="Layer 2" xmlns="http://www.w3.org/2000/svg" viewBox="0 0 504.86 349.88">
  <defs>
    <style>
      .cls-1, .cls-2 {
        stroke: #676417;
        stroke-miterlimit: 10;
      }

      .cls-1, .cls-3 {
        fill: #999750;
      }

      .cls-2, .cls-4 {
        fill: #f4fdc1;
      }

      .cls-3, .cls-4, .cls-5 {
        stroke-width: 0px;
      }

      .cls-5 {
        fill: #676417;
      }
    </style>
  </defs>
  <g id="pupil">
    <g>
      <path class="cls-1" d="m150.06.54c6.61-1.1,8.86,23.12,30,37,9.26,6.08,14.66,5.27,16,10,3.23,11.45-23.07,35.15-38,29-6.85-2.82-9.38-11.13-13-23-1.16-3.8-4.81-16.88-2-34,1.5-9.13,3.01-18.34,7-19Z"/>
      <path class="cls-1" d="m361.32,2.72c-6.61-1.1-8.86,23.12-30,37-9.26,6.08-14.66,5.27-16,10-3.23,11.45,23.07,35.15,38,29,6.85-2.82,9.38-11.13,13-23,1.16-3.8,4.81-16.88,2-34-1.5-9.13-3.01-18.34-7-19Z"/>
      <path class="cls-5" d="m97.06,143.54c-19.52,7.14-36.65,5.18-46,4,0,0-22.85-2.88-46-20-1.65-1.22-4.56-3.53-5-7-.36-2.83.95-6.12,7-12,7.89-7.67,15.69-11.8,18-13,8.22-4.27,17.48-9.09,31-12,9.94-2.14,18.31-2.41,31-2,38.53,1.24,57.79,1.87,61,9,5.79,12.87-21.06,42.05-51,53Z"/>
      <path class="cls-5" d="m407.8,143.77c19.52,7.14,36.65,5.18,46,4,0,0,22.85-2.88,46-20,1.65-1.22,4.56-3.53,5-7,.36-2.83-.95-6.12-7-12-7.89-7.67-15.69-11.8-18-13-8.22-4.27-17.48-9.09-31-12-9.94-2.14-18.31-2.41-31-2-38.53,1.24-57.79,1.87-61,9-5.79,12.87,21.06,42.05,51,53Z"/>
      <path class="cls-2" d="m243.06,36.54c-41.67,3.97-70.04,26.19-81,35-7.88,6.33-13.08,11.74-22,21-9.98,10.36-26.16,27.16-39,48-9.9,16.07-27.98,45.41-27,85,.29,11.62,1.24,36.71,18,60,4.35,6.05,10.8,13.41,24,23,11.43,8.31,39.83,26.94,85,36,17.51,3.51,69.84,12.07,130-8,20.16-6.73,42.27-14.38,63-35,7.33-7.29,23.75-24.02,31-51,7.9-29.36.34-53.76-5-71-11.05-35.69-30.46-57.84-49-79-23.5-26.82-42.51-48.52-76-59-4.4-1.38-25.06-7.57-52-5Z"/>
      <ellipse class="cls-3" cx="251.56" cy="288.54" rx="75.5" ry="51"/>
      <path class="cls-5" d="m101.06,292.54c6.36-.35,5.36-12.33,18-24,8.17-7.55,17.43-10.7,33-16,14.66-4.99,14.59-2.94,21-6,14.7-7.02,27.62-23.82,30-44,.21-1.74,2.99-29.11-17-48-13.04-12.33-27.66-13.38-50-15-24.88-1.8-33.61,4.97-36,7-3.87,3.3-6.12,6.98-9,13-5.47,11.43-12.97,27.1-15,51-2.32,27.31,4.04,47.29,6,53,2.19,6.38,10.1,29.48,19,29Z"/>
      <path class="cls-5" d="m374.06,316.54c-5.42-1.71-7.7-10.58-8-16-.52-9.48,4.89-11.04,6-23,.75-8.1-1.01-15.08-2-19-2.42-9.6-4.83-10.16-5-15-.38-10.44,10.35-19.78,18-24,15.11-8.33,37.28-7.17,43,3,1.34,2.38,1.25,5.29,1,11-.61,14.21-5.02,24.93-8,32-1.07,2.53-4.94,11.48-12,22-2.14,3.19-5.23,7.75-10,13-7.97,8.77-16.43,18.08-23,16Z"/>
      <ellipse class="cls-3" cx="345.56" cy="207.04" rx="14.5" ry="16.5"/>
      <ellipse class="cls-3" cx="157.56" cy="207.04" rx="14.5" ry="16.5"/>
      <ellipse class="cls-5" cx="218.91" cy="277.86" rx="7.76" ry="12.76" transform="translate(-80.9 90.14) rotate(-19.72)"/>
      <ellipse class="cls-5" cx="283.22" cy="278.04" rx="12.76" ry="7.76" transform="translate(-74.07 450.86) rotate(-70.28)"/>
      <circle class="cls-4" cx="152.06" cy="202.54" r="5"/>
      <circle class="cls-4" cx="341.06" cy="202.54" r="5"/>
    </g>
  </g>
</svg>