<?xml version="1.0" encoding="UTF-8"?>
<svg id="Layer_2" data-name="Layer 2" xmlns="http://www.w3.org/2000/svg" xmlns:xlink="http://www.w3.org/1999/xlink" viewBox="0 0 554 763.98">
  <defs>
    <style>
      .cls-1 {
        fill: #989650;
        stroke-width: 0px;
      }
    </style>
  </defs>
  <g id="Layer_12" data-name="Layer 12">
    <g>
      <g>
        <circle class="cls-1" cx="67.02" cy="66.09" r="66.09"/>
        <circle class="cls-1" cx="66.09" cy="697.89" r="66.09"/>
        <circle class="cls-1" cx="487.91" cy="697.89" r="66.09"/>
        <circle class="cls-1" cx="487.91" cy="66.09" r="66.09"/>
        <circle class="cls-1" cx="487.91" cy="377.3" r="66.09"/>
        <circle class="cls-1" cx="67.02" cy="377.3" r="66.09"/>
        <circle class="cls-1" cx="66.09" cy="170.14" r="66.09"/>
        <circle class="cls-1" cx="66.09" cy="274.19" r="66.09"/>
        <circle class="cls-1" cx="487.91" cy="170.14" r="66.09"/>
        <circle class="cls-1" cx="487.91" cy="274.19" r="66.09"/>
        <circle class="cls-1" cx="67.02" cy="484.16" r="66.09"/>
        <circle class="cls-1" cx="67.02" cy="588.21" r="66.09"/>
        <circle class="cls-1" cx="487.91" cy="482.29" r="66.09"/>
        <circle class="cls-1" cx="487.91" cy="586.34" r="66.09"/>
        <circle class="cls-1" cx="172.95" cy="66.09" r="66.09"/>
        <circle class="cls-1" cx="277" cy="67.02" r="66.09"/>
        <circle class="cls-1" cx="381.05" cy="67.02" r="66.09"/>
        <circle class="cls-1" cx="172.95" cy="696.95" r="66.09"/>
        <circle class="cls-1" cx="277" cy="697.89" r="66.09"/>
        <circle class="cls-1" cx="381.05" cy="697.89" r="66.09"/>
      </g>
      <image width="2465" height="3692" transform="translate(52 44.98) scale(.18)" xlink:href="kontakt.jpg"/>
    </g>
  </g>
</svg>